# Blender v3.1.2 OBJ File: ''
# www.blender.org
mtllib man.mtl
o Proxy
v -0.104207 1.120311 -0.092290
v -0.109743 1.115798 0.090422
v -0.046032 1.122939 0.041673
v 0.108693 1.115546 -0.092520
v 0.048066 1.131211 -0.042459
v 0.045062 1.123093 0.041061
v 0.045062 1.123093 0.041061
v 0.048066 1.131211 -0.042459
v 0.043544 1.195694 -0.027885
v -0.046032 1.122939 0.041673
v -0.043190 1.177397 0.054253
v -0.043740 1.195599 -0.028103
v 0.130918 1.475318 -0.032349
v 0.130919 1.396720 0.218184
v 0.130919 1.154664 0.141116
v -0.130918 1.475405 -0.031929
v -0.131481 1.217877 -0.113115
v -0.130917 1.154586 0.141211
v 0.043544 1.195694 -0.027885
v 0.130917 1.218893 -0.112737
v 0.130919 1.154664 0.141116
v -0.043190 1.177397 0.054253
v -0.130917 1.154586 0.141211
v -0.131481 1.217877 -0.113115
v 0.121548 0.641000 0.100869
v 0.121547 0.641000 -0.100870
v 0.070069 1.021435 -0.091604
v -0.092729 1.030786 -0.094525
v -0.121549 0.641000 -0.100869
v -0.121547 0.641000 0.100871
v 0.108693 1.115546 -0.092520
v 0.106632 1.107829 -0.083934
v 0.071398 1.029293 -0.082928
v 0.108693 1.115546 -0.092520
v 0.104694 1.121035 0.090368
v 0.104953 1.112232 0.025251
v 0.104694 1.121035 0.090368
v 0.093663 1.017925 0.091626
v 0.093499 1.027726 0.026737
v -0.104207 1.120311 -0.092290
v -0.102431 1.112294 -0.083792
v -0.106992 1.110028 0.025280
v -0.104207 1.120311 -0.092290
v -0.092393 1.036684 -0.085593
v -0.093662 1.017896 0.091584
v -0.092371 1.039236 0.027027
v -0.109743 1.115798 0.090422
v -0.106992 1.110028 0.025280
v 0.106632 1.107829 -0.083934
v 0.104953 1.112232 0.025251
v 0.218708 0.868304 0.036515
v -0.102431 1.112294 -0.083792
v -0.211452 0.867777 -0.094918
v -0.219752 0.863879 -0.002944
v 0.071398 1.029293 -0.082928
v 0.148544 0.830626 -0.056246
v 0.146508 0.837976 0.038760
v 0.214491 0.677829 0.073143
v 0.201547 0.715482 0.124885
v -0.092393 1.036684 -0.085593
v -0.092371 1.039236 0.027027
v -0.147765 0.833692 0.003720
v 0.220682 0.861177 -0.055619
v 0.148544 0.830626 -0.056246
v 0.071398 1.029293 -0.082928
v 0.270083 0.698022 0.073603
v 0.214491 0.677829 0.073143
v -0.216569 0.670408 0.011164
v -0.139207 0.837712 -0.091122
v 0.093499 1.027726 0.026737
v 0.146508 0.837976 0.038760
v 0.218708 0.868304 0.036515
v 0.257529 0.734538 0.123780
v -0.219752 0.863879 -0.002944
v -0.147765 0.833692 0.003720
v -0.092371 1.039236 0.027027
v -0.265818 0.720563 0.063041
v -0.210002 0.701661 0.068108
v -0.092393 1.036684 -0.085593
v -0.139207 0.837712 -0.091122
v -0.211452 0.867777 -0.094918
v -0.272187 0.690254 0.007818
v 0.270083 0.698022 0.073603
v 0.220682 0.861177 -0.055619
v -0.272187 0.690254 0.007818
v -0.265818 0.720563 0.063041
v 0.045062 1.123093 0.041061
v -0.000179 1.122762 0.041362
v 0.006752 1.126032 0.089706
v -0.046032 1.122939 0.041673
v -0.109743 1.115798 0.090422
v 0.007101 1.132065 -0.092463
v 0.002758 1.129623 -0.042257
v 0.048066 1.131211 -0.042459
v -0.104207 1.120311 -0.092290
v -0.047227 1.131362 -0.041541
v 0.000000 1.177414 0.054258
v -0.000179 1.122762 0.041362
v 0.045062 1.123093 0.041061
v -0.043190 1.177397 0.054253
v -0.046032 1.122939 0.041673
v 0.002758 1.129623 -0.042257
v -0.000000 1.195676 -0.027749
v 0.043544 1.195694 -0.027885
v -0.047227 1.131362 -0.041541
v -0.043740 1.195599 -0.028103
v 0.000001 1.396222 0.218723
v 0.000001 1.154939 0.141314
v 0.130919 1.154664 0.141116
v -0.130917 1.397023 0.217858
v -0.130917 1.154586 0.141211
v -0.000001 1.218385 -0.112980
v -0.000000 1.475797 -0.030265
v 0.130918 1.475318 -0.032349
v -0.131481 1.217877 -0.113115
v -0.130918 1.475405 -0.031929
v -0.000000 1.475797 -0.030265
v 0.000001 1.396222 0.218723
v 0.130919 1.396720 0.218184
v -0.130918 1.475405 -0.031929
v -0.130917 1.397023 0.217858
v 0.000001 1.154939 0.141314
v 0.000000 1.177414 0.054258
v 0.043212 1.177703 0.053849
v -0.130917 1.154586 0.141211
v -0.043190 1.177397 0.054253
v 0.043544 1.195694 -0.027885
v -0.000000 1.195676 -0.027749
v -0.000001 1.218385 -0.112980
v -0.043740 1.195599 -0.028103
v -0.131481 1.217877 -0.113115
v -0.001986 1.029418 -0.094160
v 0.007101 1.132065 -0.092463
v 0.108693 1.115546 -0.092520
v -0.092729 1.030786 -0.094525
v -0.104207 1.120311 -0.092290
v -0.000001 0.641000 -0.100870
v -0.001986 1.029418 -0.094160
v 0.070069 1.021435 -0.091604
v -0.121549 0.641000 -0.100869
v -0.092729 1.030786 -0.094525
v 0.104694 1.121035 0.090368
v 0.006752 1.126032 0.089706
v 0.000001 1.018093 0.091875
v -0.109743 1.115798 0.090422
v -0.093662 1.017896 0.091584
v 0.093663 1.017925 0.091626
v 0.000001 0.641000 0.114870
v -0.121547 0.641000 0.100871
v 0.119926 0.604416 0.091729
v 0.119925 0.604416 -0.091225
v 0.121548 0.641000 0.100869
v 0.020421 0.604416 0.103483
v -0.000001 0.641000 -0.100870
v 0.020420 0.604416 -0.091224
v 0.020421 0.604416 0.103483
v 0.121547 0.641000 -0.100870
v 0.119925 0.604416 -0.091225
v 0.020420 0.604416 -0.091224
v -0.000001 0.641000 -0.100870
v 0.000001 0.641000 0.114870
v -0.020420 0.604416 0.103483
v -0.119926 0.604416 0.091730
v -0.020420 0.604416 0.103483
v -0.121549 0.641000 -0.100869
v -0.119927 0.604416 -0.091223
v -0.121549 0.641000 -0.100869
v -0.000001 0.641000 -0.100870
v -0.020421 0.604416 -0.091224
v 0.122835 0.353697 0.103808
v 0.121001 0.354190 0.007941
v 0.119740 0.102943 0.042219
v 0.116010 0.103446 -0.044363
v 0.035165 0.353698 0.112728
v 0.122835 0.353697 0.103808
v 0.119926 0.604416 0.091729
v 0.037884 0.102331 0.043126
v 0.119740 0.102943 0.042219
v 0.033331 0.354190 0.007941
v 0.035165 0.353698 0.112728
v 0.039405 0.102527 -0.041711
v 0.037884 0.102331 0.043126
v 0.121001 0.354190 0.007941
v 0.033331 0.354190 0.007941
v 0.116010 0.103446 -0.044363
v 0.039405 0.102527 -0.041711
v -0.033330 0.354190 0.007942
v -0.035163 0.353698 0.112728
v -0.037882 0.102331 0.043126
v -0.020421 0.604416 -0.091224
v -0.037882 0.102331 0.043126
v -0.035163 0.353698 0.112728
v -0.122833 0.353697 0.103809
v -0.119738 0.102943 0.042220
v -0.122833 0.353697 0.103809
v -0.121000 0.354190 0.007942
v -0.119926 0.604416 0.091730
v -0.116009 0.103446 -0.044362
v -0.121000 0.354190 0.007942
v -0.033330 0.354190 0.007942
v -0.119927 0.604416 -0.091223
v 0.257529 0.734538 0.123780
v 0.264169 0.715160 0.166033
v 0.201547 0.715482 0.124885
v 0.208689 0.696722 0.167675
v 0.264169 0.715160 0.166033
v 0.230243 0.634029 0.081524
v 0.208689 0.696722 0.167675
v 0.285062 0.654392 0.082528
v -0.287362 0.645831 0.009804
v -0.276762 0.696270 0.101706
v -0.216569 0.670408 0.011164
v -0.232450 0.625879 0.012506
v -0.287362 0.645831 0.009804
v -0.210002 0.701661 0.068108
v -0.221514 0.677916 0.107320
v -0.276762 0.696270 0.101706
v 0.262360 0.567581 0.238545
v 0.272417 0.538326 0.198344
v 0.237028 0.564030 0.235767
v 0.262360 0.567581 0.238545
v 0.247393 0.533883 0.194340
v 0.230243 0.634029 0.081524
v 0.272417 0.538326 0.198344
v 0.237028 0.564030 0.235767
v 0.247393 0.533883 0.194340
v 0.272417 0.538326 0.198344
v -0.285708 0.516824 0.111778
v -0.260328 0.512956 0.110087
v -0.285708 0.516824 0.111778
v -0.255069 0.537979 0.155680
v -0.260328 0.512956 0.110087
v -0.221514 0.677916 0.107320
v -0.280606 0.541106 0.156022
v -0.285708 0.516824 0.111778
v -0.260328 0.512956 0.110087
v -0.255069 0.537979 0.155680
v 0.119990 0.076945 0.042110
v 0.038134 0.076333 0.043017
v 0.039655 0.076541 -0.050673
v 0.038134 0.076333 0.043017
v 0.116261 0.077459 -0.053325
v 0.039655 0.076541 -0.050673
v -0.039403 0.102527 -0.041710
v -0.038132 0.076333 0.043017
v -0.119738 0.102943 0.042220
v -0.119988 0.076944 0.042112
v -0.038132 0.076333 0.043017
v -0.116009 0.103446 -0.044362
v -0.116260 0.077459 -0.053324
v -0.119988 0.076944 0.042112
v -0.039403 0.102527 -0.041710
v -0.039654 0.076541 -0.050673
v 0.116261 0.077459 -0.053325
v 0.120742 0.000000 0.041785
v 0.065681 -0.000000 -0.084512
v 0.038886 0.000001 0.042692
v 0.100649 -0.000000 -0.083130
v 0.065681 -0.000000 -0.084512
v 0.120742 0.000000 0.041785
v 0.038886 0.000001 0.042692
v 0.065681 -0.000000 -0.084512
v -0.039654 0.076541 -0.050673
v -0.038884 0.000000 0.042692
v -0.100648 -0.000000 -0.083130
v -0.120740 0.000000 0.041786
v -0.116260 0.077459 -0.053324
v -0.065680 0.000000 -0.084512
v -0.120740 0.000000 0.041786
v -0.100648 -0.000000 -0.083130
v -0.065680 0.000000 -0.084512
v -0.132238 0.000000 0.177902
v -0.131494 0.042357 0.177902
v 0.131498 0.042357 0.177900
v 0.132242 0.000000 0.177901
v -0.038884 0.000000 0.042692
v -0.058381 0.000001 0.177902
v 0.132242 0.000000 0.177901
v 0.058385 0.000001 0.177901
v -0.057638 0.041882 0.177901
v 0.058385 0.000001 0.177901
v 0.057642 0.041882 0.177901
v -0.119988 0.076944 0.042112
v -0.131494 0.042357 0.177902
v -0.057638 0.041882 0.177901
v 0.119990 0.076945 0.042110
v 0.038134 0.076333 0.043017
v 0.057642 0.041882 0.177901
v 0.058385 0.000001 0.177901
v 0.132242 0.000000 0.177901
v 0.131498 0.042357 0.177900
v -0.131494 0.042357 0.177902
v -0.132238 0.000000 0.177902
v -0.058381 0.000001 0.177902
v -0.047227 1.131362 -0.041541
v -0.104207 1.120311 -0.092290
v -0.046032 1.122939 0.041673
v 0.104694 1.121035 0.090368
v 0.108693 1.115546 -0.092520
v 0.045062 1.123093 0.041061
v 0.043212 1.177703 0.053849
v -0.047227 1.131362 -0.041541
v 0.130917 1.218893 -0.112737
v -0.130917 1.397023 0.217858
v 0.043212 1.177703 0.053849
v 0.043544 1.195694 -0.027885
v 0.130919 1.154664 0.141116
v -0.043740 1.195599 -0.028103
v -0.043190 1.177397 0.054253
v -0.131481 1.217877 -0.113115
v 0.106632 1.107829 -0.083934
v 0.108693 1.115546 -0.092520
v 0.104953 1.112232 0.025251
v 0.104953 1.112232 0.025251
v -0.109743 1.115798 0.090422
v -0.102431 1.112294 -0.083792
v -0.106992 1.110028 0.025280
v 0.093499 1.027726 0.026737
v 0.106632 1.107829 -0.083934
v 0.104953 1.112232 0.025251
v -0.106992 1.110028 0.025280
v -0.102431 1.112294 -0.083792
v 0.104694 1.121035 0.090368
v 0.108693 1.115546 -0.092520
v 0.043212 1.177703 0.053849
v 0.048066 1.131211 -0.042459
v 0.130919 1.396720 0.218184
v 0.000001 1.396222 0.218723
v 0.130919 1.154664 0.141116
v -0.130917 1.397023 0.217858
v 0.000001 1.154939 0.141314
v 0.130917 1.218893 -0.112737
v 0.130918 1.475318 -0.032349
v 0.130919 1.154664 0.141116
v 0.130917 1.218893 -0.112737
v 0.070069 1.021435 -0.091604
v 0.121547 0.641000 -0.100870
v 0.121547 0.641000 -0.100870
v 0.000001 0.641000 0.114870
v 0.285062 0.654392 0.082528
v -0.232450 0.625879 0.012506
v 0.237028 0.564030 0.235767
v 0.247393 0.533883 0.194340
v 0.262360 0.567581 0.238545
v 0.237028 0.564030 0.235767
v 0.272417 0.538326 0.198344
v -0.280606 0.541106 0.156022
v -0.255069 0.537979 0.155680
v -0.280606 0.541106 0.156022
v -0.285708 0.516824 0.111778
v -0.255069 0.537979 0.155680
v 0.119990 0.076945 0.042110
v 0.100649 -0.000000 -0.083130
v 0.100649 -0.000000 -0.083130
v -0.065680 0.000000 -0.084512
v -0.100648 -0.000000 -0.083130
v -0.132238 0.000000 0.177902
v -0.058381 0.000001 0.177902
v -0.038132 0.076333 0.043017
v -0.119988 0.076944 0.042112
v -0.057638 0.041882 0.177901
v 0.131498 0.042357 0.177900
v 0.119990 0.076945 0.042110
v 0.057642 0.041882 0.177901
v 0.057642 0.041882 0.177901
v 0.058385 0.000001 0.177901
v 0.131498 0.042357 0.177900
v -0.057638 0.041882 0.177901
v -0.131494 0.042357 0.177902
v -0.058381 0.000001 0.177902
vn -0.0949 0.9952 0.0217
vn 0.3278 0.9391 0.1031
vn 0.9973 0.0605 0.0417
vn -0.9987 0.0481 0.0173
vn 1.0000 -0.0000 -0.0000
vn -1.0000 0.0014 0.0026
vn 0.0192 -0.9693 -0.2452
vn 0.0129 -0.9703 -0.2415
vn 0.9015 -0.4064 -0.1489
vn 0.9855 -0.1676 0.0266
vn -0.9640 -0.2621 -0.0458
vn -0.9789 -0.2028 -0.0234
vn -0.0077 0.9978 -0.0664
vn -0.0873 0.9957 0.0318
vn -0.0348 0.9984 0.0456
vn -0.1047 0.9897 -0.0980
vn 0.0082 -0.2297 0.9732
vn 0.0057 -0.2254 0.9743
vn -0.0031 0.2144 -0.9767
vn 0.0075 0.2044 -0.9789
vn 0.0008 -0.3055 0.9522
vn 0.0001 -0.3014 0.9535
vn -0.0140 0.3059 -0.9520
vn 0.0112 0.3006 -0.9537
vn -0.0024 0.9525 0.3044
vn 0.0039 0.9541 0.2994
vn 0.0041 -0.9682 -0.2500
vn 0.0028 -0.9680 -0.2511
vn -0.0004 -0.9663 -0.2575
vn 0.0040 -0.9663 -0.2573
vn 0.0021 0.0164 -0.9999
vn 0.0044 0.0255 -0.9997
vn 0.0471 -0.8020 0.5954
vn -0.0997 -0.8674 0.4875
vn -0.0000 -1.0000 0.0000
vn 0.0062 0.9689 0.2473
vn -0.0045 0.9687 0.2481
vn 0.0000 0.0000 1.0000
vn -0.2752 0.9561 0.1007
vn 0.0582 0.9979 -0.0287
vn 0.9995 0.0313 0.0110
vn -0.9986 0.0501 0.0194
vn -1.0000 -0.0000 0.0000
vn -0.0424 -0.9757 -0.2149
vn -0.0391 -0.9757 -0.2154
vn 0.9723 -0.2325 0.0243
vn 0.9908 -0.1339 0.0220
vn -0.9940 -0.1047 -0.0327
vn -0.9878 -0.1331 0.0809
vn 0.0511 0.9985 -0.0201
vn 0.0034 0.9977 -0.0680
vn 0.1594 0.9806 -0.1138
vn 0.0355 0.9980 0.0516
vn 0.0107 -0.2276 0.9737
vn -0.0000 -0.2297 0.9733
vn -0.0120 0.2196 -0.9755
vn -0.0065 0.2143 -0.9768
vn 0.0051 -0.3034 0.9529
vn -0.0082 -0.3055 0.9522
vn 0.0006 0.2991 -0.9542
vn -0.0002 0.3059 -0.9521
vn 0.0083 0.9541 0.2993
vn -0.0067 0.9525 0.3044
vn -0.0024 -0.9675 -0.2530
vn 0.0004 -0.9683 -0.2500
vn 0.0042 -0.9657 -0.2597
vn 0.0038 -0.9663 -0.2575
vn 0.0329 -0.0232 -0.9992
vn -0.0033 0.0168 -0.9999
vn 0.0045 0.9687 0.2481
vn -0.0062 0.9689 0.2473
vn 0.9974 0.0628 -0.0361
vn 0.9968 0.0804 -0.0001
vn 0.9970 -0.0683 -0.0360
vn -0.9993 0.0078 0.0379
vn -0.9998 0.0198 0.0001
vn -0.9998 0.0195 0.0001
vn 0.9941 -0.1066 -0.0186
vn 0.9955 -0.0510 -0.0793
vn 0.8377 -0.5392 -0.0870
vn 0.9876 -0.1568 -0.0093
vn -0.9840 -0.1292 0.1224
vn -0.9982 -0.0250 0.0541
vn -0.9994 -0.0209 -0.0292
vn -0.9997 -0.0088 -0.0229
vn 0.9067 0.4217 -0.0052
vn 0.9063 0.4225 -0.0031
vn 0.9377 0.3474 -0.0030
vn -0.9082 0.4170 -0.0367
vn -0.9298 0.3616 -0.0686
vn -0.9380 0.3408 -0.0638
vn -0.9485 -0.2868 0.1345
vn -0.9283 -0.3716 0.0089
vn -0.9311 -0.3628 0.0369
vn -0.9337 -0.3574 0.0211
vn -0.9337 -0.3570 0.0262
vn 0.9672 -0.2529 0.0248
vn 0.9654 -0.2608 0.0057
vn 0.9445 -0.3220 0.0656
vn 0.1586 -0.3376 -0.9278
vn 0.1527 -0.3490 -0.9246
vn 0.1028 -0.0699 -0.9922
vn 0.1522 -0.3875 -0.9092
vn 0.1507 -0.3853 -0.9104
vn 0.9313 -0.3549 0.0825
vn 0.9541 -0.2902 0.0738
vn -0.0401 0.0298 0.9988
vn -0.0938 0.3024 0.9486
vn -0.0943 0.2822 0.9547
vn -0.2320 0.7068 0.6683
vn -0.0307 0.1622 0.9863
vn -0.0211 0.1761 0.9842
vn -0.1943 -0.0265 0.9806
vn 0.1457 0.6228 0.7687
vn 0.1403 0.6289 0.7647
vn 0.0403 0.0267 -0.9988
vn -0.0476 -0.2446 -0.9685
vn -0.0443 -0.2250 -0.9734
vn -0.0450 -0.2768 -0.9599
vn 0.9505 0.3107 0.0078
vn 0.9293 0.3692 -0.0086
vn -0.9504 0.3050 -0.0613
vn -0.9507 0.3047 -0.0576
vn 0.0025 -0.0922 -0.9957
vn 0.0201 0.0174 -0.9996
vn 0.0309 0.0187 -0.9993
vn -0.0000 -0.1232 -0.9924
vn 0.0035 0.0171 -0.9998
vn -0.0019 0.0166 0.9999
vn -0.0009 0.0201 0.9998
vn -0.0002 0.0384 0.9993
vn 0.0010 0.0160 0.9999
vn -0.0137 0.0329 0.9994
vn 0.0134 0.0335 0.9993
vn -0.0000 -0.0745 0.9972
vn -0.1148 -0.1091 0.9874
vn 0.9998 0.0193 -0.0000
vn 0.9998 -0.0207 -0.0021
vn 0.9997 -0.0251 -0.0000
vn 0.1149 -0.1091 0.9874
vn 0.1151 -0.1218 0.9859
vn -0.8732 -0.4874 0.0000
vn -0.9469 -0.3214 0.0000
vn -0.9564 -0.2922 0.0021
vn -0.0000 -0.1205 -0.9927
vn -0.0000 -0.3116 -0.9502
vn -0.0000 -0.3036 -0.9528
vn 0.8732 -0.4874 -0.0000
vn 0.9564 -0.2922 0.0021
vn -0.1150 -0.1019 0.9881
vn -0.1151 -0.1218 0.9859
vn -0.9998 0.0193 0.0000
vn -0.9998 0.0195 0.0000
vn -0.9997 -0.0251 0.0000
vn -0.0000 -0.0932 -0.9956
vn 0.9998 0.0021 -0.0191
vn 0.9998 0.0005 -0.0177
vn 0.9992 -0.0009 -0.0404
vn 0.9991 0.0076 -0.0410
vn 0.1026 -0.1052 0.9891
vn 0.0922 -0.1076 0.9899
vn 0.1150 -0.1019 0.9881
vn 0.0209 -0.1254 0.9919
vn 0.0119 -0.1228 0.9924
vn -0.9993 -0.0371 0.0107
vn -0.9991 -0.0385 0.0173
vn -0.9998 -0.0115 -0.0171
vn -0.9998 -0.0149 -0.0137
vn -0.0000 -0.0872 -0.9962
vn -0.0035 -0.0936 -0.9956
vn -0.0327 0.2606 -0.9649
vn -0.0365 0.2591 -0.9652
vn 0.9993 -0.0371 0.0107
vn 0.9991 -0.0385 0.0173
vn 0.9998 -0.0149 -0.0137
vn 0.9469 -0.3214 -0.0000
vn -0.0209 -0.1254 0.9919
vn -0.1026 -0.1052 0.9891
vn -0.0922 -0.1076 0.9899
vn -0.9992 -0.0009 -0.0404
vn -0.9998 0.0021 -0.0191
vn -0.9998 0.0005 -0.0177
vn -0.9998 -0.0207 -0.0021
vn 0.0327 0.2606 -0.9649
vn 0.0034 -0.0936 -0.9956
vn 0.9504 0.3109 0.0115
vn 0.9760 0.1901 0.1059
vn -0.2262 0.7125 0.6642
vn -0.2072 0.6793 0.7040
vn -0.2199 0.7100 0.6689
vn -0.9583 -0.2839 -0.0332
vn 0.1699 -0.4237 -0.8898
vn -0.9847 0.1734 0.0184
vn -0.9847 0.1735 0.0183
vn -0.0434 -0.2744 -0.9606
vn -0.0817 -0.3571 -0.9305
vn -0.0641 -0.3150 -0.9469
vn 0.9307 -0.3551 0.0876
vn 0.9605 -0.2753 0.0403
vn 0.1336 0.6258 0.7684
vn 0.9791 0.0798 0.1869
vn -0.1573 0.4241 0.8919
vn -0.1490 0.4274 0.8917
vn -0.9682 -0.2411 -0.0668
vn 0.1856 -0.4632 -0.8666
vn 0.2407 -0.7064 -0.6656
vn -0.9949 0.0544 0.0849
vn -0.1464 -0.6258 -0.7661
vn -0.1547 -0.6227 -0.7670
vn 0.9734 -0.2288 0.0133
vn 0.1176 0.5911 0.7980
vn 0.0431 0.3185 0.9469
vn 0.9985 0.0108 -0.0529
vn 0.0111 -0.0041 0.9999
vn -0.9907 -0.1000 -0.0919
vn -0.9995 -0.0095 0.0299
vn -0.0276 0.3528 -0.9353
vn -0.0366 0.3561 -0.9337
vn 0.9998 -0.0115 -0.0171
vn 0.9995 -0.0095 0.0299
vn -0.0119 -0.1228 0.9924
vn -0.0111 -0.0041 0.9999
vn -0.9991 0.0076 -0.0410
vn -0.9953 -0.0434 -0.0864
vn -0.9985 0.0108 -0.0529
vn 0.0365 0.2591 -0.9652
vn 0.0366 0.3561 -0.9337
vn 0.9953 -0.0434 -0.0864
vn 0.9960 -0.0215 -0.0867
vn -0.9512 -0.2348 -0.2004
vn -0.9979 -0.0621 0.0206
vn 0.0369 0.3524 -0.9351
vn 0.0035 0.3715 -0.9284
vn 0.9907 -0.1000 -0.0920
vn 0.9979 -0.0621 0.0206
vn -0.9781 -0.1366 -0.1573
vn -0.9960 -0.0215 -0.0867
vn 0.0276 0.3528 -0.9353
vn -0.0035 0.3715 -0.9284
vn -0.9963 0.0175 -0.0842
vn -0.9964 0.0153 -0.0835
vn 0.9964 0.0153 -0.0835
vn 0.9963 0.0175 -0.0842
vn 0.9897 -0.0154 0.1421
vn -0.9896 -0.0176 0.1427
vn -0.9897 -0.0154 0.1421
vn 0.9077 -0.3706 0.1966
vn -0.9840 -0.1625 -0.0734
vn -0.9075 0.4191 -0.0292
vn -0.9490 -0.2532 0.1876
vn 0.1110 -0.0625 -0.9918
vn -0.0474 0.0240 0.9986
vn -0.2052 -0.0182 0.9786
vn 0.0374 0.0288 -0.9989
vn 0.0028 -0.1152 -0.9933
vn 0.9998 0.0195 -0.0000
vn 0.9760 0.1900 0.1059
vn 0.2324 -0.7096 -0.6652
vn 0.0513 0.3152 0.9476
vn 0.9781 -0.1366 -0.1573
vn 0.9512 -0.2348 -0.2004
vn -0.0370 0.3524 -0.9351
vn 0.9896 -0.0176 0.1427
usemtl Default-effect
s off
f 1//1 2//1 3//1
f 4//2 5//2 6//2
f 7//3 8//3 9//3
f 10//4 11//4 12//4
f 13//5 14//5 15//5
f 16//6 17//6 18//6
f 19//7 20//7 21//7
f 22//8 23//8 24//8
f 31//9 32//9 33//9
f 34//10 35//10 36//10
f 40//11 41//11 42//11
f 47//12 48//12 46//12
f 87//13 88//13 89//13
f 90//14 91//14 89//14
f 92//15 93//15 94//15
f 92//16 95//16 96//16
f 97//17 98//17 99//17
f 100//18 101//18 98//18
f 102//19 103//19 104//19
f 105//20 106//20 103//20
f 107//21 108//21 109//21
f 110//22 111//22 108//22
f 112//23 113//23 114//23
f 115//24 116//24 113//24
f 117//25 118//25 119//25
f 120//26 121//26 118//26
f 122//27 123//27 124//27
f 122//28 125//28 126//28
f 127//29 128//29 129//29
f 130//30 131//30 129//30
f 132//31 133//31 134//31
f 132//32 135//32 136//32
f 225//33 226//33 227//33
f 235//34 236//34 237//34
f 260//35 261//35 262//35
f 269//35 270//35 271//35
f 269//35 276//35 277//35
f 260//35 278//35 279//35
f 283//36 284//36 285//36
f 286//37 287//37 288//37
f 289//38 290//38 291//38
f 292//38 293//38 294//38
f 295//39 296//39 297//39
f 298//40 299//40 300//40
f 301//41 7//41 9//41
f 302//42 10//42 12//42
f 303//5 13//5 15//5
f 304//43 16//43 18//43
f 305//44 306//44 307//44
f 308//45 309//45 310//45
f 311//46 312//46 313//46
f 314//47 37//47 39//47
f 315//48 40//48 42//48
f 316//49 43//49 44//49
f 323//50 87//50 89//50
f 88//51 90//51 89//51
f 324//52 92//52 94//52
f 93//53 92//53 96//53
f 325//54 97//54 99//54
f 97//55 100//55 98//55
f 326//56 102//56 104//56
f 102//57 105//57 103//57
f 327//58 328//58 329//58
f 328//59 330//59 331//59
f 332//60 112//60 114//60
f 112//61 115//61 113//61
f 333//62 117//62 119//62
f 117//63 120//63 118//63
f 334//64 122//64 124//64
f 123//65 122//65 126//65
f 335//66 127//66 129//66
f 128//67 130//67 129//67
f 336//68 132//68 134//68
f 133//69 132//69 136//69
f 344//33 345//33 346//33
f 349//34 350//34 351//34
f 354//35 260//35 262//35
f 276//35 269//35 271//35
f 357//35 269//35 277//35
f 261//35 260//35 279//35
f 359//70 360//70 361//70
f 362//71 363//71 364//71
f 365//38 366//38 367//38
f 368//38 369//38 370//38
s 1
f 25//72 26//73 27//74
f 28//75 29//76 30//77
f 37//78 38//79 39//80
f 27//74 33//81 39//80
f 43//82 28//75 44//83
f 28//75 45//84 46//85
f 49//86 50//87 51//88
f 52//89 53//90 54//91
f 55//92 56//93 57//94
f 58//95 59//96 57//94
f 60//97 61//98 62//99
f 63//100 64//101 65//102
f 66//103 67//104 64//101
f 68//105 69//106 62//99
f 70//107 71//108 72//109
f 73//110 72//109 71//108
f 74//111 75//112 76//113
f 77//114 78//115 75//112
f 79//116 80//117 81//118
f 82//119 81//118 80//117
f 83//120 84//121 51//88
f 85//122 86//123 54//91
f 137//124 138//125 139//126
f 137//124 140//127 141//128
f 142//129 143//130 144//131
f 145//132 146//133 144//131
f 147//134 144//131 148//135
f 146//133 149//136 148//135
f 25//137 150//138 151//139
f 152//140 148//135 153//141
f 154//142 155//143 156//144
f 157//145 158//146 159//147
f 160//148 161//148 162//149
f 149//136 163//150 164//151
f 30//152 165//153 166//154
f 167//145 168//155 169//147
f 150//138 170//156 171//157
f 172//158 173//159 171//157
f 174//160 175//161 176//162
f 177//163 178//164 175//161
f 179//165 180//166 156//144
f 179//165 181//167 182//168
f 158//146 183//169 184//170
f 185//171 186//172 184//170
f 187//173 188//174 189//175
f 187//173 190//176 162//149
f 191//177 192//178 193//179
f 192//178 164//151 163//150
f 194//180 195//181 196//182
f 197//183 166//154 196//182
f 198//184 199//169 200//185
f 201//146 169//147 200//185
f 83//120 202//186 203//187
f 204//188 205//189 206//190
f 58//95 207//191 208//191
f 67//104 66//103 209//192
f 85//122 210//193 211//194
f 212//195 213//196 214//197
f 68//105 215//198 216//199
f 78//115 77//114 217//200
f 203//187 218//201 219//201
f 205//189 220//202 221//203
f 208//191 207//191 222//204
f 223//205 209//192 224//206
f 211//194 210//193 228//207
f 213//196 229//208 230//209
f 216//199 231//210 232//210
f 233//211 217//200 234//212
f 173//159 172//158 238//213
f 178//164 177//163 239//214
f 181//167 240//215 241//216
f 185//171 242//217 243//218
f 244//219 189//175 245//220
f 246//221 247//222 248//222
f 249//223 250//224 251//225
f 198//184 252//226 253//227
f 254//228 238//213 255//229
f 240//215 256//230 257//231
f 242//217 258//232 259//233
f 263//234 245//220 264//235
f 250//224 265//236 266//237
f 267//238 253//227 268//239
f 266//237 272//240 273//241
f 274//242 275//243 255//229
f 264//235 245//220 280//244
f 257//231 281//245 282//246
f 38//79 25//72 27//74
f 45//84 28//75 30//77
f 27//74 31//247 33//81
f 38//79 27//74 39//80
f 44//83 28//75 46//85
f 45//84 47//248 46//85
f 84//121 49//86 51//88
f 317//249 52//89 54//91
f 318//250 55//92 57//94
f 56//93 58//95 57//94
f 69//106 60//97 62//99
f 319//251 63//100 65//102
f 63//100 66//103 64//101
f 215//198 68//105 62//99
f 320//252 70//107 72//109
f 204//188 73//110 71//108
f 321//253 74//111 76//113
f 74//111 77//114 75//112
f 322//254 79//116 81//118
f 212//195 82//119 80//117
f 202//186 83//120 51//88
f 53//90 85//122 54//91
f 337//255 137//124 139//126
f 138//125 137//124 141//128
f 147//134 142//129 144//131
f 143//130 145//132 144//131
f 152//140 147//134 148//135
f 144//131 146//133 148//135
f 338//256 25//137 151//139
f 176//162 152//140 153//141
f 339//142 154//142 156//144
f 168//155 157//145 159//147
f 190//176 160//148 162//149
f 148//135 149//136 164//151
f 197//183 30//152 166//154
f 201//146 167//145 169//147
f 151//139 150//138 171//157
f 170//156 172//158 171//157
f 153//141 174//160 176//162
f 174//160 177//163 175//161
f 155//143 179//165 156//144
f 180//166 179//165 182//168
f 159//147 158//146 184//170
f 183//169 185//171 184//170
f 244//219 187//173 189//175
f 188//174 187//173 162//149
f 246//221 191//177 193//179
f 193//179 192//178 163//150
f 249//223 194//180 196//182
f 195//181 197//183 196//182
f 252//226 198//184 200//185
f 199//169 201//146 200//185
f 340//257 83//120 203//187
f 73//110 204//188 206//190
f 59//96 58//95 208//191
f 223//205 67//104 209//192
f 86//123 85//122 211//194
f 82//119 212//195 214//197
f 341//199 68//105 216//199
f 233//211 78//115 217//200
f 340//257 203//187 219//201
f 206//190 205//189 221//203
f 342//204 208//191 222//204
f 343//258 223//205 224//206
f 347//207 211//194 228//207
f 214//197 213//196 230//209
f 341//199 216//199 232//210
f 348//259 233//211 234//212
f 254//228 173//159 238//213
f 352//214 178//164 239//214
f 182//168 181//167 241//216
f 186//172 185//171 243//218
f 263//234 244//219 245//220
f 191//177 246//221 248//222
f 194//180 249//223 251//225
f 267//238 198//184 253//227
f 353//260 254//228 255//229
f 241//216 240//215 257//231
f 243//218 242//217 259//233
f 355//261 263//234 264//235
f 251//225 250//224 266//237
f 356//262 267//238 268//239
f 251//225 266//237 273//241
f 238//213 274//242 255//229
f 358//263 264//235 280//244
f 241//216 257//231 282//246
